<svg fill="#000000" xmlns="http://www.w3.org/2000/svg" viewBox="0 0 64 64" width="20px" height="20px"><path d="M51,6H13c-3.859,0-7,3.14-7,7v38c0,3.86,3.141,7,7,7h17.96h8.939H51c3.859,0,7-3.14,7-7V13C58,9.14,54.859,6,51,6z M37.899,40.975V56H32.96V40.975H26v-4.954h6.962v-4.734c0-5.815,3.213-9.287,8.596-9.287c1.531,0,3.114,0.091,4.718,0.272v5.386l-3.648-0.002c-4.237,0-4.728,2.709-4.728,4.747v3.618h7.87l-0.811,4.954H37.899z M56,51c0,2.761-2.239,5-5,5H39.899V42.975h5.909c0.49,0,0.908-0.355,0.987-0.839l1.138-6.954c0.099-0.609-0.37-1.161-0.987-1.161h-7.047v-1.618c0-1.899,0.394-2.747,2.727-2.747l4.649,0.002c0.552,0,1-0.448,1-1v-7.244c0-0.514-0.385-0.944-0.897-0.995C45.891,20.273,42.942,20,41.558,20c-6.437,0-10.596,4.431-10.596,11.287v2.734H25c-0.552,0-1,0.448-1,1v6.954c0,0.552,0.448,1,1,1h5.96V56H13c-2.761,0-5-2.239-5-5V13c0-2.761,2.239-5,5-5h38c2.761,0,5,2.239,5,5V51z"/><path d="M17 12c-.553 0-1 .448-1 1v2c0 .552.447 1 1 1s1-.448 1-1v-2C18 12.448 17.553 12 17 12zM12 12c-.553 0-1 .448-1 1v2c0 .552.447 1 1 1s1-.448 1-1v-2C13 12.448 12.553 12 12 12zM32 12c-.553 0-1 .448-1 1v2c0 .552.447 1 1 1s1-.448 1-1v-2C33 12.448 32.553 12 32 12zM37 12c-.553 0-1 .448-1 1v2c0 .552.447 1 1 1s1-.448 1-1v-2C38 12.448 37.553 12 37 12zM42 12c-.553 0-1 .448-1 1v2c0 .552.447 1 1 1s1-.448 1-1v-2C43 12.448 42.553 12 42 12zM47 12c-.553 0-1 .448-1 1v2c0 .552.447 1 1 1s1-.448 1-1v-2C48 12.448 47.553 12 47 12zM52 12c-.553 0-1 .448-1 1v2c0 .552.447 1 1 1s1-.448 1-1v-2C53 12.448 52.553 12 52 12zM22 12c-.553 0-1 .448-1 1v2c0 .552.447 1 1 1s1-.448 1-1v-2C23 12.448 22.553 12 22 12zM27 12c-.553 0-1 .448-1 1v2c0 .552.447 1 1 1s1-.448 1-1v-2C28 12.448 27.553 12 27 12z"/></svg>